<?xml version="1.0" encoding="UTF-8" standalone="no"?><!-- Generator: Gravit.io --><svg xmlns="http://www.w3.org/2000/svg" xmlns:xlink="http://www.w3.org/1999/xlink" style="isolation:isolate" viewBox="6 204.116 597.409 197" width="597.409pt" height="197pt"><defs><clipPath id="_clipPath_qKmjB1GAhaRTlTRhZTOPFe9TjREUuTH9"><rect x="6" y="204.116" width="597.409" height="197"/></clipPath></defs><g clip-path="url(#_clipPath_qKmjB1GAhaRTlTRhZTOPFe9TjREUuTH9)"><rect x="6" y="204.116" width="597.409" height="197" style="fill:rgb(0,0,0)" fill-opacity="0"/><clipPath id="_clipPath_4fu0CPWCrmcJoJEE1M74SiUYfEo8tuyO"><rect x="6" y="204.116" width="197" height="197" transform="matrix(1,0,0,1,0,0)" fill="rgb(255,255,255)"/></clipPath><g clip-path="url(#_clipPath_4fu0CPWCrmcJoJEE1M74SiUYfEo8tuyO)"><g><g><path d=" M 114.951 259.813 C 128.66 241.364 125.884 223.648 103.916 206.425 C 80.36 224.888 79.316 243.871 94.306 262.073 C 96.521 264.664 103.916 271.688 103.916 271.688 C 103.916 271.688 112.128 271.53 124.626 276.488 C 124.626 276.488 118.953 266.549 110.796 259.511 C 101.4 251.405 90.954 236.902 103.916 224.888 C 112.662 232.998 110.745 242.246 105.685 249.887 C 105.685 249.887 106.265 251.739 112.519 257.547 C 113.424 258.387 114.134 259.176 114.951 259.813 Z " fill="rgb(255,255,255)"/><path d=" M 101.706 273.308 C 101.706 273.308 95.485 279.924 92.004 290.991 C 88.893 300.866 88.582 310.438 88.582 310.438 C 83.331 309.199 75.606 302.723 75.606 302.723 C 76.465 290.62 81.043 280.197 81.043 280.197 C 84.622 270.852 92.273 263.866 92.273 263.866 L 101.706 273.308 Z " fill="rgb(255,255,255)"/><path d=" M 60.927 291.78 C 42.483 278.076 24.767 280.848 7.548 302.82 C 26.007 326.376 44.985 327.42 63.193 312.43 C 65.783 310.211 72.803 302.82 72.803 302.82 C 72.803 302.82 72.649 294.603 77.612 282.105 C 77.612 282.105 67.668 287.783 60.63 295.94 C 52.52 305.336 38.021 315.782 26.002 302.82 C 34.117 294.069 43.365 295.987 51.011 301.047 C 51.011 301.047 52.854 300.471 58.666 294.213 C 59.502 293.313 60.296 292.598 60.927 291.78 Z " fill="rgb(255,255,255)"/><path d=" M 74.427 305.025 C 74.427 305.025 81.043 311.251 92.11 314.732 C 101.985 317.838 111.557 318.154 111.557 318.154 C 110.318 323.4 103.842 331.13 103.842 331.13 C 91.739 330.266 81.317 325.689 81.317 325.689 C 71.972 322.114 64.985 314.459 64.985 314.459 L 74.427 305.025 Z " fill="rgb(255,255,255)"/><path d=" M 92.895 345.805 C 79.195 364.249 81.967 381.969 103.939 399.192 C 127.49 380.729 128.539 361.747 113.549 343.544 C 111.335 340.953 103.939 333.929 103.939 333.929 C 103.939 333.929 95.722 334.087 83.225 329.124 C 83.225 329.124 88.902 339.063 97.059 346.102 C 106.455 354.212 116.901 368.71 103.939 380.729 C 95.188 372.619 97.106 363.371 102.166 355.725 C 102.166 355.725 101.59 353.878 95.332 348.07 C 94.431 347.23 93.721 346.436 92.895 345.805 Z " fill="rgb(255,255,255)"/><path d=" M 106.144 332.309 C 106.144 332.309 112.37 325.689 115.852 314.621 C 118.953 304.751 119.273 295.174 119.273 295.174 C 124.519 296.418 132.244 302.89 132.244 302.89 C 131.385 314.993 126.808 325.41 126.808 325.41 C 123.233 334.765 115.578 341.751 115.578 341.751 L 106.144 332.309 Z " fill="rgb(255,255,255)"/><path d=" M 146.923 313.837 C 165.368 327.541 183.088 324.769 200.307 302.797 C 181.844 279.241 162.865 278.197 144.663 293.187 C 142.072 295.406 135.048 302.797 135.048 302.797 C 135.048 302.797 135.201 311.009 130.243 323.507 C 130.243 323.507 140.183 317.834 147.221 309.672 C 155.331 300.281 169.829 289.835 181.849 302.797 C 173.734 311.548 164.49 309.626 156.844 304.566 C 156.844 304.566 154.997 305.146 149.184 311.404 C 148.349 312.3 147.555 313.015 146.923 313.837 Z " fill="rgb(255,255,255)"/><path d=" M 133.423 300.587 C 133.423 300.587 126.808 294.366 115.745 290.885 C 105.871 287.779 96.293 287.463 96.293 287.463 C 97.533 282.217 104.009 274.487 104.009 274.487 C 116.112 275.346 126.534 279.928 126.534 279.928 C 135.879 283.503 142.871 291.158 142.871 291.158 L 133.423 300.587 Z " fill="rgb(255,255,255)"/><path d=" M 28.802 282.185 C 32.065 281.145 35.547 280.578 39.154 280.578 C 40.603 280.578 42.019 280.657 43.42 280.833 C 49.915 262.956 64.144 248.759 82.027 242.278 C 81.865 240.941 81.827 239.572 81.827 238.193 C 81.827 234.511 82.398 230.969 83.48 227.645 C 56.963 234.841 36.053 255.695 28.802 282.185 Z " fill="rgb(255,255,255)"/><path d=" M 83.304 377.935 C 82.264 374.666 81.697 371.189 81.697 367.577 C 81.697 366.134 81.781 364.718 81.953 363.316 C 64.075 356.821 49.878 342.592 43.397 324.704 C 42.06 324.867 40.691 324.904 39.312 324.904 C 35.63 324.904 32.084 324.333 28.764 323.256 C 35.96 349.774 56.809 370.678 83.304 377.935 Z " fill="rgb(255,255,255)"/><path d=" M 179.054 323.432 C 175.786 324.468 172.308 325.034 168.697 325.034 C 167.253 325.034 165.832 324.955 164.435 324.779 C 157.935 342.657 143.706 356.858 125.828 363.339 C 125.986 364.676 126.023 366.046 126.023 367.424 C 126.023 371.106 125.457 374.648 124.375 377.967 C 150.888 370.776 171.797 349.922 179.054 323.432 Z " fill="rgb(255,255,255)"/><path d=" M 124.552 227.682 C 125.592 230.946 126.158 234.428 126.158 238.04 C 126.158 239.483 126.074 240.899 125.898 242.301 C 143.776 248.796 157.972 263.021 164.453 280.908 C 165.79 280.745 167.16 280.708 168.543 280.708 C 172.225 280.708 175.767 281.279 179.091 282.356 C 171.891 255.843 151.041 234.939 124.552 227.682 Z " fill="rgb(255,255,255)"/></g></g></g><path d=" M 256.732 259.097 L 256.732 259.097 L 256.732 259.097 Q 239.257 259.097 229.142 270.735 L 229.142 270.735 L 229.142 270.735 Q 219.026 282.373 219.026 302.603 L 219.026 302.603 L 219.026 302.603 Q 219.026 323.414 228.779 334.762 L 228.779 334.762 L 228.779 334.762 Q 238.532 346.11 256.587 346.11 L 256.587 346.11 L 256.587 346.11 Q 267.682 346.11 281.894 342.122 L 281.894 342.122 L 281.894 352.926 L 281.894 352.926 Q 270.872 357.06 254.702 357.06 L 254.702 357.06 L 254.702 357.06 Q 231.281 357.06 218.555 342.847 L 218.555 342.847 L 218.555 342.847 Q 205.829 328.635 205.829 302.458 L 205.829 302.458 L 205.829 302.458 Q 205.829 286.071 211.957 273.744 L 211.957 273.744 L 211.957 273.744 Q 218.084 261.417 229.649 254.746 L 229.649 254.746 L 229.649 254.746 Q 241.215 248.075 256.877 248.075 L 256.877 248.075 L 256.877 248.075 Q 273.555 248.075 286.027 254.166 L 286.027 254.166 L 280.806 264.753 L 280.806 264.753 Q 268.769 259.097 256.732 259.097 Z  M 425.901 249.598 L 397.55 355.609 L 385.368 355.609 L 363.977 284.621 L 363.977 284.621 Q 362.454 279.907 360.569 272.729 L 360.569 272.729 L 360.569 272.729 Q 358.683 265.55 358.611 264.1 L 358.611 264.1 L 358.611 264.1 Q 357.016 273.671 353.535 285.056 L 353.535 285.056 L 332.797 355.609 L 320.615 355.609 L 292.408 249.598 L 305.46 249.598 L 322.21 315.075 L 322.21 315.075 Q 325.691 328.853 327.286 340.019 L 327.286 340.019 L 327.286 340.019 Q 329.244 326.75 333.087 314.06 L 333.087 314.06 L 352.085 249.598 L 365.137 249.598 L 385.078 314.64 L 385.078 314.64 Q 388.558 325.88 390.951 340.019 L 390.951 340.019 L 390.951 340.019 Q 392.329 329.723 396.172 314.93 L 396.172 314.93 L 412.849 249.598 L 425.901 249.598 L 425.901 249.598 Z  M 502.328 327.402 L 502.328 327.402 L 502.328 327.402 Q 502.328 341.397 492.177 349.228 L 492.177 349.228 L 492.177 349.228 Q 482.025 357.06 464.623 357.06 L 464.623 357.06 L 464.623 357.06 Q 445.77 357.06 435.618 352.201 L 435.618 352.201 L 435.618 340.309 L 435.618 340.309 Q 442.144 343.065 449.83 344.66 L 449.83 344.66 L 449.83 344.66 Q 457.516 346.255 465.058 346.255 L 465.058 346.255 L 465.058 346.255 Q 477.385 346.255 483.621 341.578 L 483.621 341.578 L 483.621 341.578 Q 489.857 336.901 489.857 328.563 L 489.857 328.563 L 489.857 328.563 Q 489.857 323.052 487.645 319.535 L 487.645 319.535 L 487.645 319.535 Q 485.433 316.018 480.249 313.045 L 480.249 313.045 L 480.249 313.045 Q 475.064 310.072 464.478 306.302 L 464.478 306.302 L 464.478 306.302 Q 449.685 301.008 443.34 293.757 L 443.34 293.757 L 443.34 293.757 Q 436.996 286.506 436.996 274.832 L 436.996 274.832 L 436.996 274.832 Q 436.996 262.577 446.205 255.326 L 446.205 255.326 L 446.205 255.326 Q 455.414 248.075 470.568 248.075 L 470.568 248.075 L 470.568 248.075 Q 486.376 248.075 499.646 253.876 L 499.646 253.876 L 495.802 264.607 L 495.802 264.607 Q 482.678 259.097 470.278 259.097 L 470.278 259.097 L 470.278 259.097 Q 460.489 259.097 454.979 263.302 L 454.979 263.302 L 454.979 263.302 Q 449.468 267.508 449.468 274.977 L 449.468 274.977 L 449.468 274.977 Q 449.468 280.487 451.498 284.004 L 451.498 284.004 L 451.498 284.004 Q 453.528 287.521 458.35 290.458 L 458.35 290.458 L 458.35 290.458 Q 463.172 293.395 473.106 296.948 L 473.106 296.948 L 473.106 296.948 Q 489.784 302.894 496.056 309.71 L 496.056 309.71 L 496.056 309.71 Q 502.328 316.526 502.328 327.402 Z  M 603.409 355.609 L 590.647 355.609 L 577.45 321.891 L 534.959 321.891 L 521.907 355.609 L 509.435 355.609 L 551.346 249.163 L 561.715 249.163 L 603.409 355.609 L 603.409 355.609 Z  M 539.309 310.797 L 573.607 310.797 L 561.28 277.95 L 561.28 277.95 Q 558.887 271.714 556.349 262.65 L 556.349 262.65 L 556.349 262.65 Q 554.754 269.611 551.781 277.95 L 551.781 277.95 L 539.309 310.797 L 539.309 310.797 Z " fill="rgb(255,255,255)"/></g></svg>